<svg data-v-29081953="" xmlns="http://www.w3.org/2000/svg" viewBox="0 0 300 300"><!----><defs data-v-29081953=""><!----></defs><rect data-v-29081953="" fill="#E0EAEF" x="0" y="0" width="300px" height="300px" class="logo-background-square"></rect><defs data-v-29081953=""><!----></defs><g data-v-29081953="" id="1c502619-4d49-4285-b475-232dc768842a" fill="#012F41" transform="matrix(6.8497796058654785,0,0,6.8497796058654785,9.682257863415074,179.65208551499674)"><path d="M0.32 10.60L0.32 1.93L2.25 1.93L2.25 3.77L2.25 3.77Q2.25 4.70 2.21 5.76L2.21 5.76L2.21 5.78L2.24 5.78L2.24 5.78Q2.47 5.33 3.53 3.46L3.53 3.46L3.53 3.46Q4.08 2.51 4.08 2.02L4.08 2.02L4.08 1.93L6.06 1.93L6.06 1.98L6.06 1.98Q6.06 2.92 5.28 4.03L5.28 4.03L4.11 5.74L5.26 8.19L6.30 8.19L6.30 8.48L5.13 8.48L5.13 8.50L5.13 8.50Q5.41 9.11 5.50 9.23L5.50 9.23L5.71 9.23L5.71 10.12L6.01 10.12L6.01 11.72L6.01 11.72Q5.50 11.73 5.26 11.73L5.26 11.73L4.79 11.73L4.79 11.73Q4.53 11.73 4.09 11.72L4.09 11.72L4.09 10.64L3.66 10.64L3.66 9.23L3.42 9.23L3.16 8.48L5.11 8.48L5.11 8.19L3.32 8.19L3.32 8.19Q3.32 8.16 3.01 7.20L3.01 7.20L2.99 7.20L2.99 7.20Q2.82 7.51 2.33 8.19L2.33 8.19L3.16 8.19L3.16 8.48L2.25 8.48L2.25 8.96L2.13 8.96L2.13 11.20L2.25 11.20L2.25 11.70L2.25 11.70Q2.25 11.73 2.21 11.73L2.21 11.73L0.36 11.73L0.36 11.73Q0.32 11.73 0.32 11.70L0.32 11.70L0.32 10.92L1.20 10.92L1.20 10.60L0.32 10.60ZM5.31 7.69L5.31 7.69L5.41 7.69L5.41 7.69Q5.46 7.69 5.51 7.96L5.51 7.96L5.51 7.96Q5.54 7.96 5.61 7.69L5.61 7.69L5.76 7.69L5.76 8.11L5.76 8.11Q5.76 8.14 5.73 8.14L5.73 8.14L5.66 8.14L5.66 7.88L5.65 7.88L5.65 7.88Q5.65 7.90 5.56 8.14L5.56 8.14L5.51 8.14L5.51 8.14Q5.46 8.14 5.41 7.91L5.41 7.91L5.39 7.91L5.39 8.11L5.39 8.11Q5.39 8.14 5.37 8.14L5.37 8.14L5.31 8.14L5.31 8.14Q5.28 8.14 5.28 8.11L5.28 8.11L5.28 7.72L5.28 7.72Q5.28 7.69 5.31 7.69ZM2.32 8.19L1.11 8.19L1.11 8.48L2.24 8.48L2.24 8.48Q2.24 8.43 2.32 8.19L2.32 8.19ZM3.68 10.73L3.68 10.71L3.78 10.71L3.78 10.71Q3.80 10.71 3.88 10.82L3.88 10.82L3.88 10.82Q3.94 10.71 3.96 10.71L3.96 10.71L4.06 10.71L4.06 10.73L3.93 10.92L3.93 10.92Q3.96 10.93 4.08 11.14L4.08 11.14L3.94 11.14L3.88 11.01L3.88 11.01Q3.78 11.14 3.77 11.14L3.77 11.14L3.66 11.14L3.66 11.14Q3.78 10.93 3.81 10.92L3.81 10.92L3.68 10.73ZM7.08 6.80L7.08 2.00L11.87 2.00L11.87 3.60L11.87 3.60Q11.87 3.63 11.83 3.63L11.83 3.63L8.99 3.63L8.99 5.74L11.54 5.74L11.54 5.76L11.54 5.76Q11.54 5.84 11.51 6.79L11.51 6.79L11.51 6.79Q11.49 6.79 11.49 6.80L11.49 6.80L11.61 6.80L11.61 7.29L9.40 7.29L9.40 9.29L8.80 9.29L8.80 9.49L9.40 9.49L9.40 10.10L11.90 10.10L11.90 10.32L11.70 10.32L11.70 11.52L8.71 11.52L8.71 11.73L7.29 11.73L7.29 8.24L7.08 8.24L7.08 7.01L5.52 7.01L5.52 6.80L7.08 6.80ZM7.89 6.80L7.09 6.80L7.09 7.01L7.89 7.01L7.89 6.80ZM13.12 1.96L13.12 1.96L15.04 1.96L15.04 1.96Q15.04 3.37 15.53 4.35L15.53 4.35L15.53 4.35Q16.06 5.64 16.26 6.39L16.26 6.39L16.26 6.41L16.27 6.41L16.27 6.41Q16.52 5.50 17.29 3.62L17.29 3.62L17.29 3.62Q17.49 2.72 17.49 1.96L17.49 1.96L19.29 1.96L19.29 1.96Q19.13 3.43 18.88 4.13L18.88 4.13L17.79 6.59L17.14 6.59L17.14 8.28L16.14 8.28L16.14 8.61L17.14 8.61L17.14 11.73L15.26 11.73L15.26 11.73Q15.24 11.73 15.24 11.70L15.24 11.70L15.24 10.17L14.94 10.17L14.94 7.46L15.50 7.46L15.50 7.21L14.89 7.21L14.89 7.21Q14.81 7.12 13.75 4.67L13.75 4.67L13.75 4.67Q13.31 3.68 13.31 3.49L13.31 3.49L14.12 3.49L14.12 3.14L13.25 3.14L13.25 3.14Q13.12 2.06 13.12 1.96ZM11.95 3.49L11.95 3.14L13.25 3.14L13.30 3.49L11.95 3.49ZM17.14 8.61L17.14 8.28L17.94 8.28L17.94 8.61L17.14 8.61ZM23.45 1.93L23.45 1.93L23.45 1.93Q25.50 1.93 26.02 3.22L26.02 3.22L26.02 3.22Q26.18 3.53 26.18 3.63L26.18 3.63L25.32 3.63L25.32 3.89L26.25 3.89L26.25 3.88L26.25 3.88Q26.25 3.81 26.18 3.63L26.18 3.63L27.76 3.63L27.76 3.89L26.26 3.89L26.26 3.91L26.26 3.91Q26.38 4.46 26.43 5.09L26.43 5.09L26.43 5.09Q26.43 5.13 24.63 5.22L24.63 5.22L24.63 5.21L24.63 5.21Q24.63 3.58 23.52 3.58L23.52 3.58L23.31 3.58L23.31 3.58Q22.48 3.58 22.29 4.29L22.29 4.29L22.29 4.29Q22.15 4.89 22.15 5.87L22.15 5.87L22.15 7.21L22.13 7.40L21.50 7.40L21.50 7.71L22.13 7.71L22.13 10.08L24.76 10.08L24.76 7.62L26.28 7.62L26.28 10.08L25.44 10.08L25.44 11.60L23.68 11.60L23.68 11.73L22.31 11.73L22.31 11.60L20.92 11.60L20.92 10.84L21.85 10.84L21.85 10.51L20.46 10.51L20.46 9.39L19.87 9.39L19.87 8.00L20.19 8.00L20.19 8.00Q20.17 7.16 20.17 6.66L20.17 6.66L20.17 6.66Q20.17 4.42 20.38 3.84L20.38 3.84L20.38 3.84Q20.59 3.17 21.04 2.69L21.04 2.69L21.04 2.69Q21.85 1.93 23.45 1.93ZM28.19 7.57L29.87 1.96L31.52 1.96L31.52 1.96Q31.55 2.10 33.12 7.29L33.12 7.29L33.42 7.29L33.42 10.51L32.74 10.51L32.74 10.76L33.42 10.76L33.42 11.45L31.60 11.45L31.60 9.47L29.38 9.47L29.38 10.32L28.47 10.32L28.47 11.73L26.82 11.73L26.82 11.63L26.95 11.63L26.95 10.32L27.63 10.32L27.63 7.57L28.19 7.57ZM30.68 4.71L30.65 4.71L30.65 4.72L30.65 4.72Q30.43 5.89 29.83 8.40L29.83 8.40L31.36 8.40L31.36 7.29L31.23 7.29L31.23 7.29Q30.68 4.92 30.68 4.71L30.68 4.71ZM26.35 7.57L26.35 7.28L27.63 7.28L27.63 7.57L26.35 7.57ZM31.60 11.73L31.60 11.57L33.80 11.57L33.80 11.73L31.60 11.73ZM33.52 7.25L33.52 1.90L36.05 1.90L36.05 1.90Q38.27 1.90 38.90 3.05L38.90 3.05L38.90 3.05Q39.26 3.77 39.26 4.89L39.26 4.89L39.26 4.89Q39.24 5.10 39.24 5.30L39.24 5.30L40.65 5.30L40.65 5.78L39.19 5.78L39.19 5.76L39.19 5.76Q39.22 5.33 39.22 5.30L39.22 5.30L38.40 5.30L38.40 5.78L39.19 5.78L39.19 7.44L37.57 7.44L37.57 8.02L37.56 8.02L37.56 8.02Q35.68 8.03 35.43 8.03L35.43 8.03L35.43 8.90L35.09 8.90L35.09 10.44L35.28 10.44L35.28 11.73L33.74 11.73L33.74 11.12L33.53 11.12L33.53 10.62L33.53 10.62Q33.53 9.74 33.52 7.76L33.52 7.76L34.45 7.76L34.45 7.25L33.52 7.25ZM36.26 3.57L35.43 3.57L35.43 6.36L36.02 6.36L36.02 5.96L37.18 5.96L37.18 5.96Q37.41 5.75 37.41 4.76L37.41 4.76L37.41 4.76Q37.41 3.83 36.98 3.68L36.98 3.68L36.98 3.68Q36.83 3.57 36.26 3.57L36.26 3.57Z"></path></g><defs data-v-29081953=""><linearGradient data-v-29081953="" gradientTransform="rotate(25)" id="ccff8514-7035-4541-aad6-ff9e6652fe6a" x1="0%" y1="0%" x2="100%" y2="0%"><stop data-v-29081953="" offset="0%" stop-color="#08C7D6" stop-opacity="1"></stop><stop data-v-29081953="" offset="100%" stop-color="#02023E" stop-opacity="1"></stop></linearGradient></defs><g data-v-29081953="" id="36346b52-1757-42e3-b283-97fbc5349e19" stroke="none" fill="url(#ccff8514-7035-4541-aad6-ff9e6652fe6a)" transform="matrix(2.501749277114868,0,0,2.501749277114868,26.423465385683787,-8.541440512509787)"><path d="M96.502 58.234c-2.746-2.146-5.586-3.437-15.412-4.193v-14.75c0-10.985-8.904-19.888-19.893-19.888H37.48c-10.983 0-19.888 8.903-19.888 19.888v14.758c-9.82.762-12.645 2.067-15.351 4.228a5.965 5.965 0 0 0-.935 8.385 5.95 5.95 0 0 0 3.453 2.108c.433.312.905.576 1.445.741.583.181 5.457 1.652 13.231 3.104a43.038 43.038 0 0 1 1.739-6.75c5.919-.49 14.787-.866 28.169-.866 12.889 0 21.59.349 27.521.812 1.02 2.63 1.707 5.257 2.148 7.421 5.283-.957 10.65-2.231 16.031-3.923 2.137-.671 3.49-2.632 3.523-4.757a5.954 5.954 0 0 0-2.064-6.318z"></path></g><!----></svg>