<?xml version="1.0" standalone="no"?>
<!DOCTYPE svg PUBLIC "-//W3C//DTD SVG 20010904//EN"
 "http://www.w3.org/TR/2001/REC-SVG-20010904/DTD/svg10.dtd">
<svg version="1.0" xmlns="http://www.w3.org/2000/svg"
 width="1760.000000pt" height="1760.000000pt" viewBox="0 0 1760.000000 1760.000000"
 preserveAspectRatio="xMidYMid meet">
<metadata>
Created by potrace 1.11, written by Peter Selinger 2001-2013
</metadata>
<g transform="translate(0.000000,1760.000000) scale(0.100000,-0.100000)"
fill="#000000" stroke="none">
<path d="M6439 13586 c-2 -2 -33 -7 -69 -10 -97 -9 -172 -17 -200 -22 -14 -3
-34 -6 -45 -8 -11 -2 -45 -7 -75 -11 -55 -9 -63 -10 -77 -15 -5 -1 -12 -3 -18
-4 -57 -9 -102 -19 -110 -24 -5 -4 -21 -8 -35 -10 -33 -4 -269 -76 -340 -103
-136 -51 -191 -74 -280 -116 -52 -24 -111 -52 -130 -63 -89 -46 -149 -80 -195
-108 -27 -17 -70 -43 -95 -58 -25 -15 -62 -40 -82 -56 -21 -16 -38 -26 -38
-22 0 4 -7 -1 -15 -12 -8 -10 -15 -15 -15 -11 0 4 -10 -2 -22 -13 -19 -16 -84
-69 -203 -162 -138 -108 -410 -394 -535 -563 -25 -33 -47 -62 -51 -65 -14 -13
-183 -275 -215 -336 -82 -151 -133 -256 -182 -370 -43 -103 -99 -253 -107
-288 -1 -6 -5 -18 -8 -26 -11 -29 -46 -155 -68 -245 -27 -116 -29 -125 -34
-155 -5 -36 -15 -91 -20 -120 -3 -14 -6 -42 -7 -62 -1 -21 -5 -38 -8 -38 -3 0
-5 -19 -6 -43 -1 -23 -4 -78 -9 -122 -4 -44 -8 -713 -9 -1487 -1 -774 -4
-1410 -8 -1413 -8 -8 -38 -12 -138 -20 -47 -3 -107 -8 -135 -11 -27 -2 -77 -7
-110 -9 -33 -3 -73 -8 -90 -11 -16 -2 -57 -7 -90 -10 -33 -3 -71 -7 -85 -8
-46 -6 -145 -18 -175 -22 -42 -4 -153 -19 -220 -29 -22 -4 -53 -9 -70 -11 -16
-2 -41 -7 -55 -9 -14 -3 -38 -7 -55 -10 -16 -2 -40 -6 -51 -9 -12 -2 -39 -7
-60 -10 -22 -4 -46 -8 -54 -11 -8 -2 -26 -6 -40 -9 -89 -15 -375 -88 -387 -99
-7 -5 -13 -7 -13 -4 0 3 -44 -10 -97 -28 -154 -53 -187 -66 -200 -77 -7 -6
-13 -7 -13 -4 0 4 -12 1 -28 -8 -15 -8 -56 -29 -92 -46 -55 -28 -155 -84 -235
-133 -11 -7 -45 -31 -77 -54 -31 -24 -60 -43 -65 -43 -5 0 -15 -9 -23 -20 -8
-11 -18 -20 -22 -20 -22 0 -234 -210 -243 -241 -4 -11 -10 -19 -13 -19 -4 0
-19 -21 -32 -47 -14 -27 -28 -50 -31 -53 -14 -12 -89 -195 -80 -195 1 0 -3
-13 -9 -30 -7 -16 -14 -43 -17 -60 -3 -16 -9 -50 -13 -75 -9 -48 -6 -278 4
-320 3 -14 9 -41 13 -60 9 -46 10 -49 13 -55 1 -3 3 -8 4 -12 13 -56 77 -203
88 -203 5 0 8 -7 8 -15 0 -28 85 -139 182 -237 54 -54 102 -98 107 -98 5 0 16
-6 23 -13 29 -26 134 -85 193 -107 22 -9 50 -21 63 -28 12 -7 22 -10 22 -8 0
3 18 -1 40 -9 22 -8 42 -14 45 -14 21 -1 55 -15 55 -22 0 -5 6 -9 14 -9 7 0
19 -6 25 -13 16 -19 117 -68 137 -66 4 0 10 -4 14 -11 4 -6 17 -12 28 -13 12
-1 22 -4 22 -7 0 -3 8 -6 18 -7 27 -2 51 -9 58 -16 4 -4 17 -7 29 -7 12 0 25
-3 29 -7 3 -4 14 -8 24 -9 9 -2 33 -7 52 -13 39 -12 158 -45 205 -57 35 -9 42
-11 53 -14 4 -1 11 -2 15 -1 4 1 16 -3 25 -8 9 -5 31 -11 47 -14 17 -3 55 -13
85 -21 81 -23 381 -97 410 -101 14 -2 25 -4 25 -5 0 -1 11 -4 25 -7 38 -7 55
-11 58 -13 1 -2 5 -3 10 -4 62 -14 89 -19 100 -17 6 1 12 -3 12 -9 0 -6 4 -9
8 -6 5 3 49 -4 98 -15 49 -11 136 -31 194 -44 58 -13 119 -26 135 -29 17 -3
41 -8 55 -11 14 -4 36 -8 50 -9 14 -2 35 -6 47 -10 11 -4 34 -8 49 -11 16 -2
49 -8 74 -14 54 -12 63 -14 210 -42 142 -27 152 -28 155 -9 2 8 6 29 10 45 3
17 8 48 11 70 3 21 7 42 10 46 2 4 6 24 9 45 3 22 8 46 11 54 3 8 8 26 10 40
4 25 6 35 17 80 13 53 39 162 42 178 2 9 4 17 6 17 1 0 3 9 5 20 2 11 8 38 14
60 6 22 13 47 15 55 2 8 4 15 5 15 1 0 3 8 6 17 2 10 6 26 8 35 3 10 5 18 6
18 1 0 3 7 5 15 16 63 28 101 64 214 51 157 52 159 87 161 30 2 151 11 269 21
79 7 160 12 290 19 50 2 117 7 150 9 69 6 237 15 375 21 52 3 142 7 200 10
282 13 794 32 1107 39 57 1 105 5 109 8 3 4 16 3 29 -2 13 -5 25 -6 28 -3 3 3
95 6 204 8 109 2 403 7 653 11 571 9 2598 9 3150 0 228 -4 501 -9 607 -11 106
-2 197 -6 204 -11 8 -4 9 -3 5 4 -5 9 -1 9 17 3 13 -5 30 -5 37 -1 8 5 19 6
25 2 5 -3 55 -7 110 -8 118 -2 455 -13 645 -20 74 -3 185 -7 245 -9 61 -2 110
-4 110 -5 0 -1 250 -12 313 -13 23 0 42 -5 42 -10 0 -5 7 -4 15 3 8 6 18 9 23
6 5 -3 63 -9 128 -12 66 -3 146 -8 179 -9 33 -2 96 -6 140 -9 44 -3 121 -8
172 -11 51 -3 118 -8 150 -11 32 -2 80 -6 106 -8 27 -2 50 -6 51 -8 2 -1 26
-68 55 -148 63 -177 60 -169 62 -178 0 -4 7 -23 15 -42 8 -19 15 -36 15 -37 0
-3 1 -8 25 -88 10 -33 19 -64 21 -70 1 -5 19 -66 39 -135 20 -69 37 -135 38
-147 0 -13 5 -23 10 -23 4 0 6 -6 3 -14 -3 -8 -3 -17 1 -20 3 -4 8 -17 10 -29
5 -29 10 -51 12 -54 3 -3 3 -3 15 -58 12 -58 12 -57 24 -100 5 -22 13 -56 16
-75 12 -74 21 -95 41 -94 20 2 105 17 164 29 3 1 25 5 50 9 25 5 54 10 65 12
11 2 31 6 45 9 14 3 36 7 50 10 14 3 39 8 55 11 17 3 59 12 95 20 36 9 79 17
96 20 16 2 79 15 140 29 60 15 125 28 144 31 19 3 42 8 50 11 8 3 24 7 35 9
36 5 110 21 110 24 0 1 9 3 20 5 35 6 78 16 140 32 56 14 69 17 120 28 11 3
92 23 180 46 88 22 166 41 173 41 6 1 12 5 12 10 0 5 4 7 9 4 4 -3 41 4 82 15
41 12 81 22 89 24 8 2 83 22 165 45 83 23 155 43 160 44 37 9 215 60 283 82 7
2 14 4 17 4 3 0 23 7 45 15 22 8 43 14 45 14 3 0 64 18 137 41 132 42 250 97
323 153 61 46 192 184 207 217 7 17 16 30 19 30 3 0 14 19 25 43 10 23 21 44
24 47 24 23 74 203 85 305 7 66 11 95 29 185 14 76 15 290 1 360 -9 43 -34
140 -42 160 -4 8 -7 17 -7 20 -1 3 -5 11 -9 18 -5 6 -6 12 -3 12 3 0 -6 20
-20 45 -13 25 -21 45 -17 45 4 0 3 4 -2 8 -6 4 -24 30 -40 57 -84 147 -234
288 -479 449 -106 70 -358 199 -431 222 -5 1 -62 21 -125 42 -156 54 -215 72
-238 72 -10 0 -22 3 -26 7 -4 5 -11 8 -14 8 -8 1 -82 17 -97 21 -10 3 -42 10
-80 18 -11 2 -31 7 -45 10 -14 3 -36 8 -50 10 -14 3 -60 12 -103 20 -44 8 -82
15 -85 15 -4 -1 -9 0 -12 1 -14 5 -106 20 -224 35 -21 3 -52 8 -69 10 -17 3
-51 8 -76 10 -25 2 -46 5 -46 5 0 1 -18 3 -40 5 -22 3 -58 6 -80 9 -105 13
-134 16 -190 21 -33 3 -76 8 -95 10 -33 4 -131 13 -230 20 -25 2 -72 6 -105
10 l-60 6 1 1412 c0 777 -2 1416 -4 1421 -3 6 -7 38 -8 73 -1 34 -5 84 -9 110
-4 26 -9 68 -11 93 -4 44 -11 85 -14 85 -1 0 -3 16 -6 35 -2 19 -9 58 -15 85
-6 28 -13 61 -15 75 -13 69 -73 286 -91 330 -3 8 -7 20 -8 25 0 6 -5 19 -9 30
-38 95 -79 212 -79 222 0 7 -3 13 -7 13 -4 0 -15 21 -25 48 -29 75 -174 354
-187 360 -5 2 -8 8 -8 13 0 5 -26 49 -57 97 -32 48 -60 92 -62 97 -2 6 -7 12
-10 15 -3 3 -22 28 -41 55 -38 55 -48 68 -70 94 -8 9 -32 39 -52 66 -107 138
-435 469 -506 509 -13 8 -34 25 -86 71 -6 6 -34 26 -61 45 -28 19 -51 38 -53
42 -2 4 -10 8 -17 8 -7 0 -15 3 -17 8 -5 12 -223 152 -237 152 -5 0 -14 7 -21
15 -7 8 -21 15 -30 15 -10 0 -20 4 -22 9 -3 8 -163 91 -243 126 -22 9 -58 26
-80 36 -22 10 -78 32 -125 49 -47 17 -92 33 -100 37 -8 3 -19 7 -25 9 -5 1
-48 15 -95 29 -47 15 -101 31 -120 35 -19 5 -52 13 -73 20 -20 6 -41 9 -46 5
-5 -3 -11 -1 -13 4 -1 5 -19 11 -38 14 -19 3 -48 9 -65 12 -16 4 -45 8 -63 9
-18 2 -35 6 -38 9 -3 3 -12 3 -20 0 -8 -3 -14 -1 -14 4 0 5 -15 9 -32 9 -47 1
-168 15 -198 22 -27 7 -4774 15 -4781 8z"/>
</g>
</svg>
