<svg data-v-d3f97b9e="" xmlns="http://www.w3.org/2000/svg" viewBox="0 0 110.1181507977847 60"><!----><!----><!----><linearGradient data-v-d3f97b9e="" gradientTransform="rotate(25)" id="16c837c8-2a0d-4869-bc2f-15cc0782b739" x1="0%" y1="0%" x2="100%" y2="0%"><stop data-v-d3f97b9e="" offset="0%" style="stop-color: rgb(8, 199, 214); stop-opacity: 1;"></stop><stop data-v-d3f97b9e="" offset="100%" style="stop-color: rgb(2, 2, 62); stop-opacity: 1;"></stop></linearGradient><g data-v-d3f97b9e="" id="be6a1b8f-b05f-4563-b81d-585582bfa828" transform="matrix(1.114640712738037,0,0,1.114640712738037,0.0002265812800033018,-21.62737274169922)" stroke="none" fill="url(#16c837c8-2a0d-4869-bc2f-15cc0782b739)"><path d="M96.502 58.234c-2.746-2.146-5.586-3.437-15.412-4.193v-14.75c0-10.985-8.904-19.888-19.893-19.888H37.48c-10.983 0-19.888 8.903-19.888 19.888v14.758c-9.82.762-12.645 2.067-15.351 4.228a5.965 5.965 0 0 0-.935 8.385 5.95 5.95 0 0 0 3.453 2.108c.433.312.905.576 1.445.741.583.181 5.457 1.652 13.231 3.104a43.038 43.038 0 0 1 1.739-6.75c5.919-.49 14.787-.866 28.169-.866 12.889 0 21.59.349 27.521.812 1.02 2.63 1.707 5.257 2.148 7.421 5.283-.957 10.65-2.231 16.031-3.923 2.137-.671 3.49-2.632 3.523-4.757a5.954 5.954 0 0 0-2.064-6.318z"></path></g><!----></svg>