<svg data-v-29081953="" xmlns="http://www.w3.org/2000/svg" viewBox="0 0 300 300"><!----><defs data-v-29081953=""><!----></defs><rect data-v-29081953="" fill="#E0EAEF" x="0" y="0" width="300px" height="300px" class="logo-background-square"></rect><!----><defs data-v-29081953=""><linearGradient data-v-29081953="" gradientTransform="rotate(25)" id="8dd725a1-2bea-40cc-aeeb-93cb95cb224f" x1="0%" y1="0%" x2="100%" y2="0%"><stop data-v-29081953="" offset="0%" stop-color="#08C7D6" stop-opacity="1"></stop><stop data-v-29081953="" offset="100%" stop-color="#02023E" stop-opacity="1"></stop></linearGradient></defs><g data-v-29081953="" id="92397ad0-1956-4b7a-851b-640c69b4f7ee" fill="url(#8dd725a1-2bea-40cc-aeeb-93cb95cb224f)" stroke="none" transform="matrix(2.2268896102905273,0,0,2.2268896102905273,40.000446206747924,46.85603776867758)"><path d="M96.502 58.234c-2.746-2.146-5.586-3.437-15.412-4.193v-14.75c0-10.985-8.904-19.888-19.893-19.888H37.48c-10.983 0-19.888 8.903-19.888 19.888v14.758c-9.82.762-12.645 2.067-15.351 4.228a5.965 5.965 0 0 0-.935 8.385 5.95 5.95 0 0 0 3.453 2.108c.433.312.905.576 1.445.741.583.181 5.457 1.652 13.231 3.104a43.038 43.038 0 0 1 1.739-6.75c5.919-.49 14.787-.866 28.169-.866 12.889 0 21.59.349 27.521.812 1.02 2.63 1.707 5.257 2.148 7.421 5.283-.957 10.65-2.231 16.031-3.923 2.137-.671 3.49-2.632 3.523-4.757a5.954 5.954 0 0 0-2.064-6.318z"></path></g><!----></svg>
